<?xml version="1.0" standalone="no"?>
<svg viewBox="30 30 200 200" xmlns="http://www.w3.org/2000/svg">
  <path fill="#E8DAFF" d="M38.4,-53.9C51.4,-51.3,65,-43.6,71.8,-31.8C78.6,-20.1,78.8,-4.4,71.3,6.4C63.8,17.2,48.6,23.1,39.5,35.1C30.4,47.1,27.4,65.2,18.5,71.9C9.5,78.6,-5.4,73.9,-14.8,64.6C-24.1,55.3,-27.8,41.3,-40.8,32.1C-53.8,22.9,-75.9,18.5,-79.7,9.8C-83.5,1.1,-68.9,-11.8,-60.5,-26.6C-52.2,-41.4,-50,-58,-41,-62.4C-31.9,-66.8,-16,-59.1,-1.7,-56.5C12.6,-53.9,25.3,-56.5,38.4,-53.9Z" transform="translate(100 100)" />
</svg>
